<svg width="1049" height="332" viewBox="0 0 1049 332" fill="none" xmlns="http://www.w3.org/2000/svg">
<mask id="path-1-outside-1_15_44" maskUnits="userSpaceOnUse" x="22" y="97" width="328" height="212" fill="black">
<rect fill="white" x="22" y="97" width="328" height="212"/>
<path d="M23.1 98.6H124.8C142.2 98.6 155.7 103.5 165.3 113.3C175.1 123.1 180 136.1 180 152.3C180 160.3 178.9 167.1 176.7 172.7C174.7 178.3 171.9 182.9 168.3 186.5C164.9 190.1 160.8 192.8 156 194.6C151.4 196.2 146.4 197.1 141 197.3V199.1C146 199.1 151.2 200 156.6 201.8C162.2 203.6 167.3 206.5 171.9 210.5C176.5 214.3 180.3 219.3 183.3 225.5C186.5 231.7 188.1 239.3 188.1 248.3C188.1 256.5 186.7 264.3 183.9 271.7C181.3 278.9 177.6 285.2 172.8 290.6C168 296 162.3 300.3 155.7 303.5C149.1 306.5 141.9 308 134.1 308H23.1V98.6ZM68.7 269.6H121.2C127.2 269.6 131.9 268 135.3 264.8C138.9 261.4 140.7 256.7 140.7 250.7V240.5C140.7 234.5 138.9 229.9 135.3 226.7C131.9 223.3 127.2 221.6 121.2 221.6H68.7V269.6ZM68.7 184.4H114C120 184.4 124.7 182.7 128.1 179.3C131.5 175.9 133.2 171.2 133.2 165.2V156.2C133.2 150.2 131.5 145.5 128.1 142.1C124.7 138.7 120 137 114 137H68.7V184.4ZM223.198 308V98.6H268.798V267.5H348.598V308H223.198Z"/>
</mask>
<path d="M23.1 98.6H124.8C142.2 98.6 155.7 103.5 165.3 113.3C175.1 123.1 180 136.1 180 152.3C180 160.3 178.9 167.1 176.7 172.7C174.7 178.3 171.9 182.9 168.3 186.5C164.9 190.1 160.8 192.8 156 194.6C151.4 196.2 146.4 197.1 141 197.3V199.1C146 199.1 151.2 200 156.6 201.8C162.2 203.6 167.3 206.5 171.9 210.5C176.5 214.3 180.3 219.3 183.3 225.5C186.5 231.7 188.1 239.3 188.1 248.3C188.1 256.5 186.7 264.3 183.9 271.7C181.3 278.9 177.6 285.2 172.8 290.6C168 296 162.3 300.3 155.7 303.5C149.1 306.5 141.9 308 134.1 308H23.1V98.6ZM68.7 269.6H121.2C127.2 269.6 131.9 268 135.3 264.8C138.9 261.4 140.7 256.7 140.7 250.7V240.5C140.7 234.5 138.9 229.9 135.3 226.7C131.9 223.3 127.2 221.6 121.2 221.6H68.7V269.6ZM68.7 184.4H114C120 184.4 124.7 182.7 128.1 179.3C131.5 175.9 133.2 171.2 133.2 165.2V156.2C133.2 150.2 131.5 145.5 128.1 142.1C124.7 138.7 120 137 114 137H68.7V184.4ZM223.198 308V98.6H268.798V267.5H348.598V308H223.198Z" fill="white"/>
<path d="M23.1 98.6V97.6H22.1V98.6H23.1ZM165.3 113.3L164.586 114L164.593 114.007L165.3 113.3ZM176.7 172.7L175.769 172.334L175.764 172.349L175.758 172.364L176.7 172.7ZM168.3 186.5L167.593 185.793L167.583 185.803L167.573 185.813L168.3 186.5ZM156 194.6L156.329 195.544L156.34 195.541L156.351 195.536L156 194.6ZM141 197.3L140.963 196.301L140 196.336V197.3H141ZM141 199.1H140V200.1H141V199.1ZM156.6 201.8L156.284 202.749L156.294 202.752L156.6 201.8ZM171.9 210.5L171.244 211.255L171.253 211.263L171.263 211.271L171.9 210.5ZM183.3 225.5L182.4 225.936L182.405 225.947L182.411 225.959L183.3 225.5ZM183.9 271.7L182.965 271.346L182.962 271.353L182.959 271.36L183.9 271.7ZM172.8 290.6L172.053 289.936V289.936L172.8 290.6ZM155.7 303.5L156.114 304.41L156.125 304.405L156.136 304.4L155.7 303.5ZM23.1 308H22.1V309H23.1V308ZM68.7 269.6H67.7V270.6H68.7V269.6ZM135.3 264.8L135.985 265.528L135.987 265.527L135.3 264.8ZM135.3 226.7L134.593 227.407L134.614 227.428L134.636 227.447L135.3 226.7ZM68.7 221.6V220.6H67.7V221.6H68.7ZM68.7 184.4H67.7V185.4H68.7V184.4ZM128.1 179.3L127.393 178.593V178.593L128.1 179.3ZM128.1 142.1L127.393 142.807V142.807L128.1 142.1ZM68.7 137V136H67.7V137H68.7ZM23.1 98.6V99.6H124.8V98.6V97.6H23.1V98.6ZM124.8 98.6V99.6C142.007 99.6 155.221 104.44 164.586 114L165.3 113.3L166.014 112.6C156.179 102.56 142.393 97.6 124.8 97.6V98.6ZM165.3 113.3L164.593 114.007C174.174 123.588 179 136.317 179 152.3H180H181C181 135.883 176.026 122.612 166.007 112.593L165.3 113.3ZM180 152.3H179C179 160.214 177.911 166.882 175.769 172.334L176.7 172.7L177.631 173.066C179.889 167.318 181 160.386 181 152.3H180ZM176.7 172.7L175.758 172.364C173.8 177.848 171.072 182.314 167.593 185.793L168.3 186.5L169.007 187.207C172.728 183.486 175.6 178.752 177.642 173.036L176.7 172.7ZM168.3 186.5L167.573 185.813C164.281 189.299 160.311 191.915 155.649 193.664L156 194.6L156.351 195.536C161.289 193.685 165.519 190.901 169.027 187.187L168.3 186.5ZM156 194.6L155.671 193.655C151.175 195.219 146.274 196.104 140.963 196.301L141 197.3L141.037 198.299C146.526 198.096 151.625 197.181 156.329 195.544L156 194.6ZM141 197.3H140V199.1H141H142V197.3H141ZM141 199.1V200.1C145.879 200.1 150.972 200.978 156.284 202.749L156.6 201.8L156.916 200.851C151.428 199.022 146.121 198.1 141 198.1V199.1ZM156.6 201.8L156.294 202.752C161.76 204.509 166.742 207.34 171.244 211.255L171.9 210.5L172.556 209.745C167.858 205.66 162.64 202.691 156.906 200.848L156.6 201.8ZM171.9 210.5L171.263 211.271C175.736 214.966 179.453 219.845 182.4 225.936L183.3 225.5L184.2 225.064C181.147 218.755 177.264 213.634 172.537 209.729L171.9 210.5ZM183.3 225.5L182.411 225.959C185.52 231.982 187.1 239.415 187.1 248.3H188.1H189.1C189.1 239.185 187.48 231.418 184.189 225.041L183.3 225.5ZM188.1 248.3H187.1C187.1 256.384 185.72 264.063 182.965 271.346L183.9 271.7L184.835 272.054C187.68 264.537 189.1 256.616 189.1 248.3H188.1ZM183.9 271.7L182.959 271.36C180.4 278.448 176.763 284.636 172.053 289.936L172.8 290.6L173.547 291.264C178.437 285.764 182.2 279.352 184.841 272.04L183.9 271.7ZM172.8 290.6L172.053 289.936C167.341 295.236 161.747 299.457 155.264 302.6L155.7 303.5L156.136 304.4C162.853 301.143 168.659 296.764 173.547 291.264L172.8 290.6ZM155.7 303.5L155.286 302.59C148.826 305.526 141.768 307 134.1 307V308V309C142.032 309 149.374 307.474 156.114 304.41L155.7 303.5ZM134.1 308V307H23.1V308V309H134.1V308ZM23.1 308H24.1V98.6H23.1H22.1V308H23.1ZM68.7 269.6V270.6H121.2V269.6V268.6H68.7V269.6ZM121.2 269.6V270.6C127.379 270.6 132.351 268.948 135.985 265.528L135.3 264.8L134.615 264.072C131.449 267.052 127.021 268.6 121.2 268.6V269.6ZM135.3 264.8L135.987 265.527C139.828 261.899 141.7 256.912 141.7 250.7H140.7H139.7C139.7 256.488 137.972 260.901 134.613 264.073L135.3 264.8ZM140.7 250.7H141.7V240.5H140.7H139.7V250.7H140.7ZM140.7 240.5H141.7C141.7 234.29 139.829 229.387 135.964 225.953L135.3 226.7L134.636 227.447C137.971 230.413 139.7 234.71 139.7 240.5H140.7ZM135.3 226.7L136.007 225.993C132.376 222.361 127.396 220.6 121.2 220.6V221.6V222.6C127.004 222.6 131.424 224.239 134.593 227.407L135.3 226.7ZM121.2 221.6V220.6H68.7V221.6V222.6H121.2V221.6ZM68.7 221.6H67.7V269.6H68.7H69.7V221.6H68.7ZM68.7 184.4V185.4H114V184.4V183.4H68.7V184.4ZM114 184.4V185.4C120.196 185.4 125.176 183.639 128.807 180.007L128.1 179.3L127.393 178.593C124.224 181.761 119.804 183.4 114 183.4V184.4ZM128.1 179.3L128.807 180.007C132.439 176.376 134.2 171.396 134.2 165.2H133.2H132.2C132.2 171.004 130.561 175.424 127.393 178.593L128.1 179.3ZM133.2 165.2H134.2V156.2H133.2H132.2V165.2H133.2ZM133.2 156.2H134.2C134.2 150.004 132.439 145.024 128.807 141.393L128.1 142.1L127.393 142.807C130.561 145.976 132.2 150.396 132.2 156.2H133.2ZM128.1 142.1L128.807 141.393C125.176 137.761 120.196 136 114 136V137V138C119.804 138 124.224 139.639 127.393 142.807L128.1 142.1ZM114 137V136H68.7V137V138H114V137ZM68.7 137H67.7V184.4H68.7H69.7V137H68.7ZM223.198 308H222.198V309H223.198V308ZM223.198 98.6V97.6H222.198V98.6H223.198ZM268.798 98.6H269.798V97.6H268.798V98.6ZM268.798 267.5H267.798V268.5H268.798V267.5ZM348.598 267.5H349.598V266.5H348.598V267.5ZM348.598 308V309H349.598V308H348.598ZM223.198 308H224.198V98.6H223.198H222.198V308H223.198ZM223.198 98.6V99.6H268.798V98.6V97.6H223.198V98.6ZM268.798 98.6H267.798V267.5H268.798H269.798V98.6H268.798ZM268.798 267.5V268.5H348.598V267.5V266.5H268.798V267.5ZM348.598 267.5H347.598V308H348.598H349.598V267.5H348.598ZM348.598 308V307H223.198V308V309H348.598V308Z" fill="black" mask="url(#path-1-outside-1_15_44)"/>
<mask id="path-3-outside-2_15_44" maskUnits="userSpaceOnUse" x="536" y="97" width="403" height="212" fill="black">
<rect fill="white" x="536" y="97" width="403" height="212"/>
<path d="M601 209L580.9 167H580V308H537.1V98.6H586.9L644.2 197.6L664.3 239.6H665.2V98.6H708.1V308H658.3L601 209ZM827.09 216.8L799.79 249.8V308H754.19V98.6H799.79V198.2H801.59L831.29 157.7L878.39 98.6H929.99L859.49 184.7L936.29 308H882.59L827.09 216.8Z"/>
</mask>
<path d="M601 209L580.9 167H580V308H537.1V98.6H586.9L644.2 197.6L664.3 239.6H665.2V98.6H708.1V308H658.3L601 209ZM827.09 216.8L799.79 249.8V308H754.19V98.6H799.79V198.2H801.59L831.29 157.7L878.39 98.6H929.99L859.49 184.7L936.29 308H882.59L827.09 216.8Z" fill="white"/>
<path d="M601 209L600.098 209.432L600.115 209.467L600.135 209.501L601 209ZM580.9 167L581.802 166.568L581.53 166H580.9V167ZM580 167V166H579V167H580ZM580 308V309H581V308H580ZM537.1 308H536.1V309H537.1V308ZM537.1 98.6V97.6H536.1V98.6H537.1ZM586.9 98.6L587.765 98.0991L587.477 97.6H586.9V98.6ZM644.2 197.6L645.102 197.168L645.085 197.133L645.065 197.099L644.2 197.6ZM664.3 239.6L663.398 240.032L663.67 240.6H664.3V239.6ZM665.2 239.6V240.6H666.2V239.6H665.2ZM665.2 98.6V97.6H664.2V98.6H665.2ZM708.1 98.6H709.1V97.6H708.1V98.6ZM708.1 308V309H709.1V308H708.1ZM658.3 308L657.435 308.501L657.723 309H658.3V308ZM601 209L601.902 208.568L581.802 166.568L580.9 167L579.998 167.432L600.098 209.432L601 209ZM580.9 167V166H580V167V168H580.9V167ZM580 167H579V308H580H581V167H580ZM580 308V307H537.1V308V309H580V308ZM537.1 308H538.1V98.6H537.1H536.1V308H537.1ZM537.1 98.6V99.6H586.9V98.6V97.6H537.1V98.6ZM586.9 98.6L586.035 99.1009L643.335 198.101L644.2 197.6L645.065 197.099L587.765 98.0991L586.9 98.6ZM644.2 197.6L643.298 198.032L663.398 240.032L664.3 239.6L665.202 239.168L645.102 197.168L644.2 197.6ZM664.3 239.6V240.6H665.2V239.6V238.6H664.3V239.6ZM665.2 239.6H666.2V98.6H665.2H664.2V239.6H665.2ZM665.2 98.6V99.6H708.1V98.6V97.6H665.2V98.6ZM708.1 98.6H707.1V308H708.1H709.1V98.6H708.1ZM708.1 308V307H658.3V308V309H708.1V308ZM658.3 308L659.165 307.499L601.865 208.499L601 209L600.135 209.501L657.435 308.501L658.3 308ZM827.09 216.8L827.944 216.28L827.214 215.081L826.319 216.163L827.09 216.8ZM799.79 249.8L799.019 249.163L798.79 249.44V249.8H799.79ZM799.79 308V309H800.79V308H799.79ZM754.19 308H753.19V309H754.19V308ZM754.19 98.6V97.6H753.19V98.6H754.19ZM799.79 98.6H800.79V97.6H799.79V98.6ZM799.79 198.2H798.79V199.2H799.79V198.2ZM801.59 198.2V199.2H802.097L802.396 198.791L801.59 198.2ZM831.29 157.7L830.508 157.077L830.495 157.092L830.483 157.109L831.29 157.7ZM878.39 98.6V97.6H877.908L877.608 97.9768L878.39 98.6ZM929.99 98.6L930.764 99.2335L932.101 97.6H929.99V98.6ZM859.49 184.7L858.716 184.066L858.262 184.621L858.641 185.229L859.49 184.7ZM936.29 308V309H938.091L937.139 307.471L936.29 308ZM882.59 308L881.736 308.52L882.028 309H882.59V308ZM827.09 216.8L826.319 216.163L799.019 249.163L799.79 249.8L800.56 250.437L827.86 217.437L827.09 216.8ZM799.79 249.8H798.79V308H799.79H800.79V249.8H799.79ZM799.79 308V307H754.19V308V309H799.79V308ZM754.19 308H755.19V98.6H754.19H753.19V308H754.19ZM754.19 98.6V99.6H799.79V98.6V97.6H754.19V98.6ZM799.79 98.6H798.79V198.2H799.79H800.79V98.6H799.79ZM799.79 198.2V199.2H801.59V198.2V197.2H799.79V198.2ZM801.59 198.2L802.396 198.791L832.096 158.291L831.29 157.7L830.483 157.109L800.783 197.609L801.59 198.2ZM831.29 157.7L832.072 158.323L879.172 99.2232L878.39 98.6L877.608 97.9768L830.508 157.077L831.29 157.7ZM878.39 98.6V99.6H929.99V98.6V97.6H878.39V98.6ZM929.99 98.6L929.216 97.9665L858.716 184.066L859.49 184.7L860.264 185.334L930.764 99.2335L929.99 98.6ZM859.49 184.7L858.641 185.229L935.441 308.529L936.29 308L937.139 307.471L860.339 184.171L859.49 184.7ZM936.29 308V307H882.59V308V309H936.29V308ZM882.59 308L883.444 307.48L827.944 216.28L827.09 216.8L826.236 217.32L881.736 308.52L882.59 308Z" fill="black" mask="url(#path-3-outside-2_15_44)"/>
<path d="M404.839 117.309C402.553 120.492 400.382 126.055 399.504 131.002C398.698 135.711 400.958 191.018 402.297 198.171C405.053 213.262 415.44 226.235 430.107 232.774C432.726 233.914 435.421 234.898 435.959 234.906C436.825 234.863 436.943 233.035 436.574 225.398L436.114 215.873L433.427 214.195C431.979 213.326 429.304 211.037 427.559 209.159C421.505 202.839 421.45 202.548 419.747 168.179C418.512 143.5 418.424 137.401 419.278 134.537C421.271 127.853 426.6 123.438 433.796 122.587C441.032 121.699 446.804 123.906 452.589 129.792C458.988 136.389 459.091 136.807 460.686 167.242C461.956 191.802 462.087 193.654 463.717 196.583C467.437 203.383 469.14 210.366 469.822 221.915L470.211 228.245L472.426 226.16C475.195 223.553 478.707 217.5 480.024 213.083C481.756 206.989 481.783 201.555 480.183 171.038C478.484 138.468 478.14 136.474 473.498 127.709C470.407 121.947 463.166 114.169 457.571 110.508C438.955 98.4138 416.349 101.322 404.839 117.309Z" fill="white"/>
<path d="M387.74 188.781C385.197 192.634 383.228 198.952 382.746 204.385C382.236 210.102 385.165 266.411 386.199 270.675C390.387 288.023 404.498 301.869 422.104 305.899C433.644 308.514 446.763 305.264 454.753 297.742C460.291 292.529 464.23 284.184 464.988 275.916C465.549 269.55 462.474 214.495 461.274 209.357C458.479 197.736 451.899 188.221 441.809 181.407C437.532 178.48 429.365 174.663 427.846 174.891C427.395 174.973 427.293 178.846 427.567 184.512L428.024 193.955L430.71 195.633C432.158 196.502 434.837 198.874 436.665 200.759C442.597 207.108 442.7 207.526 444.311 240.007C445.113 255.735 445.598 270.045 445.436 271.829C444.95 276.322 443.522 279.297 440.283 282.432C430.374 292.19 412.158 286.673 406.206 272.187C405.078 269.386 404.582 264.272 403.511 242.959C402.229 218.153 402.13 216.958 400.297 213.275C396.213 204.928 395.029 200.119 394.331 189.1L393.887 181.62L391.755 183.713C390.568 184.83 388.776 187.118 387.74 188.781Z" fill="white"/>
</svg>
